<svg xmlns="http://www.w3.org/2000/svg" xmlns:v="https://svgstorm.com"
viewBox = "0 0 512 512"
width="512"
height="512">
<g fill="None" fill-opacity="0.0" stroke="#000000" stroke-opacity="1.00" stroke-width="0.3"><path d="
M 0.00 120.00 
C 10.00 120.00 20.00 120.00 30.00 120.00
C 30.00 90.00 30.00 60.00 30.00 30.00
C 60.00 30.00 90.00 30.00 120.00 30.00
C 120.00 20.00 120.00 10.00 120.00 0.00
L 0.00 0.00
L 0.00 120.00 Z"/>
</g>
<g fill="None" fill-opacity="0.0" stroke="#FEFEFE" stroke-opacity="1.00" stroke-width="0.3"><path d="
M 0.00 120.00 
L 0.00 392.00
C 10.00 392.00 20.00 392.00 30.00 392.00
C 30.00 422.00 30.00 452.00 30.00 482.00
C 60.00 482.00 90.00 482.00 120.00 482.00
C 120.00 492.00 120.00 502.00 120.00 512.00
L 392.00 512.00
C 392.00 502.00 392.00 492.00 392.00 482.00
C 422.00 482.00 452.00 482.00 482.00 482.00
C 482.00 452.00 482.00 422.00 482.00 392.00
C 492.00 392.00 502.00 392.00 512.00 392.00
L 512.00 120.00
C 502.00 120.00 492.00 120.00 482.00 120.00
C 482.00 90.00 482.00 60.00 482.00 30.00
C 452.00 30.00 422.00 30.00 392.00 30.00
C 392.00 20.00 392.00 10.00 392.00 0.00
L 120.00 0.00
C 120.00 10.00 120.00 20.00 120.00 30.00
C 90.00 30.00 60.00 30.00 30.00 30.00
C 30.00 60.00 30.00 90.00 30.00 120.00
C 20.00 120.00 10.00 120.00 0.00 120.00
M 211.00 60.00 
C 211.00 70.00 211.00 80.00 211.00 90.00
C 221.00 90.00 231.00 90.00 241.00 90.00
C 241.00 80.00 241.00 70.00 241.00 60.00
C 251.00 60.00 261.00 60.00 271.00 60.00
C 271.00 70.00 271.00 80.00 271.00 90.00
C 263.52 88.90 258.76 91.47 251.00 90.00 C 243.24 88.53 239.54 92.24 241.00 100.00 C 242.46 107.76 239.91 112.51 241.00 120.00
C 231.00 120.00 221.00 120.00 211.00 120.00
C 211.00 150.00 211.00 180.00 211.00 210.00
C 161.00 210.00 111.00 210.00 61.00 210.00
C 61.00 160.00 61.00 110.00 61.00 60.00
C 111.00 60.00 161.00 60.00 211.00 60.00
M 451.00 60.00 
C 451.00 110.00 451.00 160.00 451.00 210.00
C 431.00 210.00 411.00 210.00 391.00 210.00
C 391.00 220.00 391.00 230.00 391.00 240.00
C 383.52 238.90 378.76 241.47 371.00 240.00 C 363.24 238.53 359.54 242.24 361.00 250.00 C 362.46 257.76 359.91 262.51 361.00 270.00
C 348.36 269.88 336.74 270.16 324.00 270.00 C 311.26 269.84 298.98 270.29 286.00 270.00 C 273.02 269.71 262.57 270.64 249.00 270.00 C 235.43 269.36 242.69 289.99 241.00 300.00
C 232.16 298.70 228.35 301.73 219.00 300.00 C 209.65 298.27 210.49 307.47 211.00 315.00 C 211.51 322.53 210.75 329.46 211.00 337.00 C 211.25 344.54 210.81 352.43 211.00 360.00
C 203.52 358.90 198.76 361.47 191.00 360.00 C 183.24 358.53 179.54 362.24 181.00 370.00 C 182.46 377.76 179.91 382.51 181.00 390.00
C 171.00 390.00 161.00 390.00 151.00 390.00
C 151.00 400.00 151.00 410.00 151.00 420.00
C 171.00 420.00 191.00 420.00 211.00 420.00
C 211.00 410.00 211.00 400.00 211.00 390.00
C 221.00 390.00 231.00 390.00 241.00 390.00
C 241.00 400.00 241.00 410.00 241.00 420.00
C 251.00 420.00 261.00 420.00 271.00 420.00
C 271.00 430.00 271.00 440.00 271.00 450.00
C 221.00 450.00 171.00 450.00 121.00 450.00
C 121.00 440.00 121.00 430.00 121.00 420.00
C 113.52 418.90 108.76 421.47 101.00 420.00 C 93.24 418.53 89.54 422.24 91.00 430.00 C 92.46 437.76 89.91 442.51 91.00 450.00
C 81.00 450.00 71.00 450.00 61.00 450.00
C 61.00 440.00 61.00 430.00 61.00 420.00
C 71.00 420.00 81.00 420.00 91.00 420.00
C 89.90 412.52 92.47 407.76 91.00 400.00 C 89.53 392.24 93.24 388.54 101.00 390.00 C 108.76 391.46 113.51 388.91 121.00 390.00
C 121.00 370.00 121.00 350.00 121.00 330.00
C 112.16 328.70 108.35 331.73 99.00 330.00 C 89.65 328.27 90.49 337.47 91.00 345.00 C 91.51 352.53 90.75 359.46 91.00 367.00 C 91.25 374.54 90.81 382.43 91.00 390.00
C 81.00 390.00 71.00 390.00 61.00 390.00
C 61.00 370.00 61.00 350.00 61.00 330.00
C 71.00 330.00 81.00 330.00 91.00 330.00
C 91.00 320.00 91.00 310.00 91.00 300.00
C 101.00 300.00 111.00 300.00 121.00 300.00
C 121.00 290.00 121.00 280.00 121.00 270.00
C 101.00 270.00 81.00 270.00 61.00 270.00
C 61.00 260.00 61.00 250.00 61.00 240.00
C 111.00 240.00 161.00 240.00 211.00 240.00
C 211.00 250.00 211.00 260.00 211.00 270.00
C 191.00 270.00 171.00 270.00 151.00 270.00
C 151.00 300.00 151.00 330.00 151.00 360.00
C 161.00 360.00 171.00 360.00 181.00 360.00
C 181.00 340.00 181.00 320.00 181.00 300.00
C 191.00 300.00 201.00 300.00 211.00 300.00
C 209.90 292.52 212.47 287.76 211.00 280.00 C 209.53 272.24 213.24 268.54 221.00 270.00 C 228.76 271.46 233.51 268.91 241.00 270.00
C 241.00 250.00 241.00 230.00 241.00 210.00
C 251.00 210.00 261.00 210.00 271.00 210.00
C 271.00 220.00 271.00 230.00 271.00 240.00
C 301.00 240.00 331.00 240.00 361.00 240.00
C 361.00 230.00 361.00 220.00 361.00 210.00
C 341.00 210.00 321.00 210.00 301.00 210.00
C 301.00 160.00 301.00 110.00 301.00 60.00
C 351.00 60.00 401.00 60.00 451.00 60.00
M 271.00 120.00 
C 271.00 140.00 271.00 160.00 271.00 180.00
C 261.00 180.00 251.00 180.00 241.00 180.00
C 240.92 172.65 241.10 165.35 241.00 158.00 C 240.90 150.65 241.19 142.25 241.00 135.00 C 240.81 127.75 239.09 118.90 248.00 120.00 C 256.91 121.10 262.40 119.17 271.00 120.00
M 451.00 240.00 
C 451.00 250.00 451.00 260.00 451.00 270.00
C 443.65 269.92 436.35 270.10 429.00 270.00 C 421.65 269.90 413.25 270.19 406.00 270.00 C 398.75 269.81 389.90 268.09 391.00 277.00 C 392.10 285.91 390.18 291.40 391.00 300.00
C 411.00 300.00 431.00 300.00 451.00 300.00
C 451.00 350.00 451.00 400.00 451.00 450.00
C 401.00 450.00 351.00 450.00 301.00 450.00
C 301.00 430.00 301.00 410.00 301.00 390.00
C 291.00 390.00 281.00 390.00 271.00 390.00
C 269.90 382.52 272.47 377.76 271.00 370.00 C 269.53 362.24 273.24 358.54 281.00 360.00 C 288.76 361.46 293.51 358.91 301.00 360.00
C 301.00 350.00 301.00 340.00 301.00 330.00
C 293.52 328.90 288.76 331.47 281.00 330.00 C 273.24 328.53 269.54 332.24 271.00 340.00 C 272.46 347.76 269.91 352.51 271.00 360.00
C 261.00 360.00 251.00 360.00 241.00 360.00
C 241.00 350.00 241.00 340.00 241.00 330.00
C 251.00 330.00 261.00 330.00 271.00 330.00
C 271.00 320.00 271.00 310.00 271.00 300.00
C 301.00 300.00 331.00 300.00 361.00 300.00
C 359.90 292.52 362.47 287.76 361.00 280.00 C 359.53 272.24 363.24 268.54 371.00 270.00 C 378.76 271.46 383.51 268.91 391.00 270.00
C 389.70 261.16 392.73 257.35 391.00 248.00 C 389.27 238.65 398.47 239.49 406.00 240.00 C 413.53 240.51 420.46 239.75 428.00 240.00 C 435.54 240.25 443.43 239.81 451.00 240.00 Z"/>
</g>
<g fill="None" fill-opacity="0.0" stroke="#000000" stroke-opacity="1.00" stroke-width="0.3"><path d="
M 512.00 120.00 
L 512.00 0.00
L 392.00 0.00
C 392.00 10.00 392.00 20.00 392.00 30.00
C 422.00 30.00 452.00 30.00 482.00 30.00
C 482.00 60.00 482.00 90.00 482.00 120.00
C 492.00 120.00 502.00 120.00 512.00 120.00 Z"/>
</g>
<g fill="None" fill-opacity="0.0" stroke="#000000" stroke-opacity="1.00" stroke-width="0.3"><path d="
M 211.00 60.00 
C 161.00 60.00 111.00 60.00 61.00 60.00
C 61.00 110.00 61.00 160.00 61.00 210.00
C 111.00 210.00 161.00 210.00 211.00 210.00
C 211.00 180.00 211.00 150.00 211.00 120.00
C 221.00 120.00 231.00 120.00 241.00 120.00
C 239.91 112.51 242.46 107.76 241.00 100.00 C 239.54 92.24 243.24 88.53 251.00 90.00 C 258.76 91.47 263.52 88.90 271.00 90.00
C 271.00 80.00 271.00 70.00 271.00 60.00
C 261.00 60.00 251.00 60.00 241.00 60.00
C 241.00 70.00 241.00 80.00 241.00 90.00
C 231.00 90.00 221.00 90.00 211.00 90.00
C 211.00 80.00 211.00 70.00 211.00 60.00
M 181.00 90.00 
C 181.00 120.00 181.00 150.00 181.00 180.00
C 151.00 180.00 121.00 180.00 91.00 180.00
C 91.00 150.00 91.00 120.00 91.00 90.00
C 121.00 90.00 151.00 90.00 181.00 90.00 Z"/>
</g>
<g fill="None" fill-opacity="0.0" stroke="#000000" stroke-opacity="1.00" stroke-width="0.3"><path d="
M 451.00 60.00 
C 401.00 60.00 351.00 60.00 301.00 60.00
C 301.00 110.00 301.00 160.00 301.00 210.00
C 321.00 210.00 341.00 210.00 361.00 210.00
C 361.00 220.00 361.00 230.00 361.00 240.00
C 331.00 240.00 301.00 240.00 271.00 240.00
C 271.00 230.00 271.00 220.00 271.00 210.00
C 261.00 210.00 251.00 210.00 241.00 210.00
C 241.00 230.00 241.00 250.00 241.00 270.00
C 233.51 268.91 228.76 271.46 221.00 270.00 C 213.24 268.54 209.53 272.24 211.00 280.00 C 212.47 287.76 209.90 292.52 211.00 300.00
C 201.00 300.00 191.00 300.00 181.00 300.00
C 181.00 320.00 181.00 340.00 181.00 360.00
C 171.00 360.00 161.00 360.00 151.00 360.00
C 151.00 330.00 151.00 300.00 151.00 270.00
C 171.00 270.00 191.00 270.00 211.00 270.00
C 211.00 260.00 211.00 250.00 211.00 240.00
C 161.00 240.00 111.00 240.00 61.00 240.00
C 61.00 250.00 61.00 260.00 61.00 270.00
C 81.00 270.00 101.00 270.00 121.00 270.00
C 121.00 280.00 121.00 290.00 121.00 300.00
C 111.00 300.00 101.00 300.00 91.00 300.00
C 91.00 310.00 91.00 320.00 91.00 330.00
C 81.00 330.00 71.00 330.00 61.00 330.00
C 61.00 350.00 61.00 370.00 61.00 390.00
C 71.00 390.00 81.00 390.00 91.00 390.00
C 90.81 382.43 91.25 374.54 91.00 367.00 C 90.75 359.46 91.51 352.53 91.00 345.00 C 90.49 337.47 89.65 328.27 99.00 330.00 C 108.35 331.73 112.16 328.70 121.00 330.00
C 121.00 350.00 121.00 370.00 121.00 390.00
C 113.51 388.91 108.76 391.46 101.00 390.00 C 93.24 388.54 89.53 392.24 91.00 400.00 C 92.47 407.76 89.90 412.52 91.00 420.00
C 81.00 420.00 71.00 420.00 61.00 420.00
C 61.00 430.00 61.00 440.00 61.00 450.00
C 71.00 450.00 81.00 450.00 91.00 450.00
C 89.91 442.51 92.46 437.76 91.00 430.00 C 89.54 422.24 93.24 418.53 101.00 420.00 C 108.76 421.47 113.52 418.90 121.00 420.00
C 121.00 430.00 121.00 440.00 121.00 450.00
C 171.00 450.00 221.00 450.00 271.00 450.00
C 271.00 440.00 271.00 430.00 271.00 420.00
C 261.00 420.00 251.00 420.00 241.00 420.00
C 241.00 410.00 241.00 400.00 241.00 390.00
C 231.00 390.00 221.00 390.00 211.00 390.00
C 211.00 400.00 211.00 410.00 211.00 420.00
C 191.00 420.00 171.00 420.00 151.00 420.00
C 151.00 410.00 151.00 400.00 151.00 390.00
C 161.00 390.00 171.00 390.00 181.00 390.00
C 179.91 382.51 182.46 377.76 181.00 370.00 C 179.54 362.24 183.24 358.53 191.00 360.00 C 198.76 361.47 203.52 358.90 211.00 360.00
C 210.81 352.43 211.25 344.54 211.00 337.00 C 210.75 329.46 211.51 322.53 211.00 315.00 C 210.49 307.47 209.65 298.27 219.00 300.00 C 228.35 301.73 232.16 298.70 241.00 300.00
C 242.69 289.99 235.43 269.36 249.00 270.00 C 262.57 270.64 273.02 269.71 286.00 270.00 C 298.98 270.29 311.26 269.84 324.00 270.00 C 336.74 270.16 348.36 269.88 361.00 270.00
C 359.91 262.51 362.46 257.76 361.00 250.00 C 359.54 242.24 363.24 238.53 371.00 240.00 C 378.76 241.47 383.52 238.90 391.00 240.00
C 391.00 230.00 391.00 220.00 391.00 210.00
C 411.00 210.00 431.00 210.00 451.00 210.00
C 451.00 160.00 451.00 110.00 451.00 60.00
M 421.00 90.00 
C 421.00 120.00 421.00 150.00 421.00 180.00
C 391.00 180.00 361.00 180.00 331.00 180.00
C 331.00 150.00 331.00 120.00 331.00 90.00
C 361.00 90.00 391.00 90.00 421.00 90.00 Z"/>
</g>
<g fill="None" fill-opacity="0.0" stroke="#FFFFFF" stroke-opacity="1.00" stroke-width="0.3"><path d="
M 181.00 90.00 
C 151.00 90.00 121.00 90.00 91.00 90.00
C 91.00 120.00 91.00 150.00 91.00 180.00
C 121.00 180.00 151.00 180.00 181.00 180.00
C 181.00 150.00 181.00 120.00 181.00 90.00
M 151.00 120.00 
C 151.00 130.00 151.00 140.00 151.00 150.00
C 141.00 150.00 131.00 150.00 121.00 150.00
C 121.00 140.00 121.00 130.00 121.00 120.00
C 131.00 120.00 141.00 120.00 151.00 120.00 Z"/>
</g>
<g fill="None" fill-opacity="0.0" stroke="#FFFFFF" stroke-opacity="1.00" stroke-width="0.3"><path d="
M 421.00 90.00 
C 391.00 90.00 361.00 90.00 331.00 90.00
C 331.00 120.00 331.00 150.00 331.00 180.00
C 361.00 180.00 391.00 180.00 421.00 180.00
C 421.00 150.00 421.00 120.00 421.00 90.00
M 391.00 120.00 
C 391.00 130.00 391.00 140.00 391.00 150.00
C 381.00 150.00 371.00 150.00 361.00 150.00
C 361.00 140.00 361.00 130.00 361.00 120.00
C 371.00 120.00 381.00 120.00 391.00 120.00 Z"/>
</g>
<g fill="None" fill-opacity="0.0" stroke="#000000" stroke-opacity="1.00" stroke-width="0.3"><path d="
M 151.00 120.00 
C 141.00 120.00 131.00 120.00 121.00 120.00
C 121.00 130.00 121.00 140.00 121.00 150.00
C 131.00 150.00 141.00 150.00 151.00 150.00
C 151.00 140.00 151.00 130.00 151.00 120.00 Z"/>
</g>
<g fill="None" fill-opacity="0.0" stroke="#000000" stroke-opacity="1.00" stroke-width="0.3"><path d="
M 271.00 120.00 
C 262.40 119.17 256.91 121.10 248.00 120.00 C 239.09 118.90 240.81 127.75 241.00 135.00 C 241.19 142.25 240.90 150.65 241.00 158.00 C 241.10 165.35 240.92 172.65 241.00 180.00
C 251.00 180.00 261.00 180.00 271.00 180.00
C 271.00 160.00 271.00 140.00 271.00 120.00 Z"/>
</g>
<g fill="None" fill-opacity="0.0" stroke="#000000" stroke-opacity="1.00" stroke-width="0.3"><path d="
M 391.00 120.00 
C 381.00 120.00 371.00 120.00 361.00 120.00
C 361.00 130.00 361.00 140.00 361.00 150.00
C 371.00 150.00 381.00 150.00 391.00 150.00
C 391.00 140.00 391.00 130.00 391.00 120.00 Z"/>
</g>
<g fill="None" fill-opacity="0.0" stroke="#000000" stroke-opacity="1.00" stroke-width="0.3"><path d="
M 451.00 240.00 
C 443.43 239.81 435.54 240.25 428.00 240.00 C 420.46 239.75 413.53 240.51 406.00 240.00 C 398.47 239.49 389.27 238.65 391.00 248.00 C 392.73 257.35 389.70 261.16 391.00 270.00
C 383.51 268.91 378.76 271.46 371.00 270.00 C 363.24 268.54 359.53 272.24 361.00 280.00 C 362.47 287.76 359.90 292.52 361.00 300.00
C 331.00 300.00 301.00 300.00 271.00 300.00
C 271.00 310.00 271.00 320.00 271.00 330.00
C 261.00 330.00 251.00 330.00 241.00 330.00
C 241.00 340.00 241.00 350.00 241.00 360.00
C 251.00 360.00 261.00 360.00 271.00 360.00
C 269.91 352.51 272.46 347.76 271.00 340.00 C 269.54 332.24 273.24 328.53 281.00 330.00 C 288.76 331.47 293.52 328.90 301.00 330.00
C 301.00 340.00 301.00 350.00 301.00 360.00
C 293.51 358.91 288.76 361.46 281.00 360.00 C 273.24 358.54 269.53 362.24 271.00 370.00 C 272.47 377.76 269.90 382.52 271.00 390.00
C 281.00 390.00 291.00 390.00 301.00 390.00
C 301.00 410.00 301.00 430.00 301.00 450.00
C 351.00 450.00 401.00 450.00 451.00 450.00
C 451.00 400.00 451.00 350.00 451.00 300.00
C 431.00 300.00 411.00 300.00 391.00 300.00
C 390.18 291.40 392.10 285.91 391.00 277.00 C 389.90 268.09 398.75 269.81 406.00 270.00 C 413.25 270.19 421.65 269.90 429.00 270.00 C 436.35 270.10 443.65 269.92 451.00 270.00
C 451.00 260.00 451.00 250.00 451.00 240.00
M 421.00 330.00 
C 421.00 360.00 421.00 390.00 421.00 420.00
C 391.00 420.00 361.00 420.00 331.00 420.00
C 331.00 390.00 331.00 360.00 331.00 330.00
C 361.00 330.00 391.00 330.00 421.00 330.00 Z"/>
</g>
<g fill="None" fill-opacity="0.0" stroke="#FFFFFF" stroke-opacity="1.00" stroke-width="0.3"><path d="
M 421.00 330.00 
C 391.00 330.00 361.00 330.00 331.00 330.00
C 331.00 360.00 331.00 390.00 331.00 420.00
C 361.00 420.00 391.00 420.00 421.00 420.00
C 421.00 390.00 421.00 360.00 421.00 330.00
M 391.00 360.00 
C 391.00 370.00 391.00 380.00 391.00 390.00
C 381.00 390.00 371.00 390.00 361.00 390.00
C 361.00 380.00 361.00 370.00 361.00 360.00
C 371.00 360.00 381.00 360.00 391.00 360.00 Z"/>
</g>
<g fill="None" fill-opacity="0.0" stroke="#000000" stroke-opacity="1.00" stroke-width="0.3"><path d="
M 391.00 360.00 
C 381.00 360.00 371.00 360.00 361.00 360.00
C 361.00 370.00 361.00 380.00 361.00 390.00
C 371.00 390.00 381.00 390.00 391.00 390.00
C 391.00 380.00 391.00 370.00 391.00 360.00 Z"/>
</g>
<g fill="None" fill-opacity="0.0" stroke="#000000" stroke-opacity="1.00" stroke-width="0.3"><path d="
M 0.00 512.00 
L 120.00 512.00
C 120.00 502.00 120.00 492.00 120.00 482.00
C 90.00 482.00 60.00 482.00 30.00 482.00
C 30.00 452.00 30.00 422.00 30.00 392.00
C 20.00 392.00 10.00 392.00 0.00 392.00
L 0.00 512.00 Z"/>
</g>
<g fill="None" fill-opacity="0.0" stroke="#000000" stroke-opacity="1.00" stroke-width="0.3"><path d="
M 392.00 512.00 
L 512.00 512.00
L 512.00 392.00
C 502.00 392.00 492.00 392.00 482.00 392.00
C 482.00 422.00 482.00 452.00 482.00 482.00
C 452.00 482.00 422.00 482.00 392.00 482.00
C 392.00 492.00 392.00 502.00 392.00 512.00 Z"/>
</g>
<g fill="#000000" fill-opacity="1.00" stroke="None">
<path d="
M 0.00 120.00 
C 10.00 120.00 20.00 120.00 30.00 120.00
C 30.00 90.00 30.00 60.00 30.00 30.00
C 60.00 30.00 90.00 30.00 120.00 30.00
C 120.00 20.00 120.00 10.00 120.00 0.00
L 0.00 0.00
L 0.00 120.00 Z"/>
</g>
<g fill="#FEFEFE" fill-opacity="1.00" stroke="None">
<path d="
M 0.00 120.00 
L 0.00 392.00
C 10.00 392.00 20.00 392.00 30.00 392.00
C 30.00 422.00 30.00 452.00 30.00 482.00
C 60.00 482.00 90.00 482.00 120.00 482.00
C 120.00 492.00 120.00 502.00 120.00 512.00
L 392.00 512.00
C 392.00 502.00 392.00 492.00 392.00 482.00
C 422.00 482.00 452.00 482.00 482.00 482.00
C 482.00 452.00 482.00 422.00 482.00 392.00
C 492.00 392.00 502.00 392.00 512.00 392.00
L 512.00 120.00
C 502.00 120.00 492.00 120.00 482.00 120.00
C 482.00 90.00 482.00 60.00 482.00 30.00
C 452.00 30.00 422.00 30.00 392.00 30.00
C 392.00 20.00 392.00 10.00 392.00 0.00
L 120.00 0.00
C 120.00 10.00 120.00 20.00 120.00 30.00
C 90.00 30.00 60.00 30.00 30.00 30.00
C 30.00 60.00 30.00 90.00 30.00 120.00
C 20.00 120.00 10.00 120.00 0.00 120.00
M 211.00 60.00 
C 211.00 70.00 211.00 80.00 211.00 90.00
C 221.00 90.00 231.00 90.00 241.00 90.00
C 241.00 80.00 241.00 70.00 241.00 60.00
C 251.00 60.00 261.00 60.00 271.00 60.00
C 271.00 70.00 271.00 80.00 271.00 90.00
C 263.52 88.90 258.76 91.47 251.00 90.00 C 243.24 88.53 239.54 92.24 241.00 100.00 C 242.46 107.76 239.91 112.51 241.00 120.00
C 231.00 120.00 221.00 120.00 211.00 120.00
C 211.00 150.00 211.00 180.00 211.00 210.00
C 161.00 210.00 111.00 210.00 61.00 210.00
C 61.00 160.00 61.00 110.00 61.00 60.00
C 111.00 60.00 161.00 60.00 211.00 60.00
M 451.00 60.00 
C 451.00 110.00 451.00 160.00 451.00 210.00
C 431.00 210.00 411.00 210.00 391.00 210.00
C 391.00 220.00 391.00 230.00 391.00 240.00
C 383.52 238.90 378.76 241.47 371.00 240.00 C 363.24 238.53 359.54 242.24 361.00 250.00 C 362.46 257.76 359.91 262.51 361.00 270.00
C 348.36 269.88 336.74 270.16 324.00 270.00 C 311.26 269.84 298.98 270.29 286.00 270.00 C 273.02 269.71 262.57 270.64 249.00 270.00 C 235.43 269.36 242.69 289.99 241.00 300.00
C 232.16 298.70 228.35 301.73 219.00 300.00 C 209.65 298.27 210.49 307.47 211.00 315.00 C 211.51 322.53 210.75 329.46 211.00 337.00 C 211.25 344.54 210.81 352.43 211.00 360.00
C 203.52 358.90 198.76 361.47 191.00 360.00 C 183.24 358.53 179.54 362.24 181.00 370.00 C 182.46 377.76 179.91 382.51 181.00 390.00
C 171.00 390.00 161.00 390.00 151.00 390.00
C 151.00 400.00 151.00 410.00 151.00 420.00
C 171.00 420.00 191.00 420.00 211.00 420.00
C 211.00 410.00 211.00 400.00 211.00 390.00
C 221.00 390.00 231.00 390.00 241.00 390.00
C 241.00 400.00 241.00 410.00 241.00 420.00
C 251.00 420.00 261.00 420.00 271.00 420.00
C 271.00 430.00 271.00 440.00 271.00 450.00
C 221.00 450.00 171.00 450.00 121.00 450.00
C 121.00 440.00 121.00 430.00 121.00 420.00
C 113.52 418.90 108.76 421.47 101.00 420.00 C 93.24 418.53 89.54 422.24 91.00 430.00 C 92.46 437.76 89.91 442.51 91.00 450.00
C 81.00 450.00 71.00 450.00 61.00 450.00
C 61.00 440.00 61.00 430.00 61.00 420.00
C 71.00 420.00 81.00 420.00 91.00 420.00
C 89.90 412.52 92.47 407.76 91.00 400.00 C 89.53 392.24 93.24 388.54 101.00 390.00 C 108.76 391.46 113.51 388.91 121.00 390.00
C 121.00 370.00 121.00 350.00 121.00 330.00
C 112.16 328.70 108.35 331.73 99.00 330.00 C 89.65 328.27 90.49 337.47 91.00 345.00 C 91.51 352.53 90.75 359.46 91.00 367.00 C 91.25 374.54 90.81 382.43 91.00 390.00
C 81.00 390.00 71.00 390.00 61.00 390.00
C 61.00 370.00 61.00 350.00 61.00 330.00
C 71.00 330.00 81.00 330.00 91.00 330.00
C 91.00 320.00 91.00 310.00 91.00 300.00
C 101.00 300.00 111.00 300.00 121.00 300.00
C 121.00 290.00 121.00 280.00 121.00 270.00
C 101.00 270.00 81.00 270.00 61.00 270.00
C 61.00 260.00 61.00 250.00 61.00 240.00
C 111.00 240.00 161.00 240.00 211.00 240.00
C 211.00 250.00 211.00 260.00 211.00 270.00
C 191.00 270.00 171.00 270.00 151.00 270.00
C 151.00 300.00 151.00 330.00 151.00 360.00
C 161.00 360.00 171.00 360.00 181.00 360.00
C 181.00 340.00 181.00 320.00 181.00 300.00
C 191.00 300.00 201.00 300.00 211.00 300.00
C 209.90 292.52 212.47 287.76 211.00 280.00 C 209.53 272.24 213.24 268.54 221.00 270.00 C 228.76 271.46 233.51 268.91 241.00 270.00
C 241.00 250.00 241.00 230.00 241.00 210.00
C 251.00 210.00 261.00 210.00 271.00 210.00
C 271.00 220.00 271.00 230.00 271.00 240.00
C 301.00 240.00 331.00 240.00 361.00 240.00
C 361.00 230.00 361.00 220.00 361.00 210.00
C 341.00 210.00 321.00 210.00 301.00 210.00
C 301.00 160.00 301.00 110.00 301.00 60.00
C 351.00 60.00 401.00 60.00 451.00 60.00
M 271.00 120.00 
C 271.00 140.00 271.00 160.00 271.00 180.00
C 261.00 180.00 251.00 180.00 241.00 180.00
C 240.92 172.65 241.10 165.35 241.00 158.00 C 240.90 150.65 241.19 142.25 241.00 135.00 C 240.81 127.75 239.09 118.90 248.00 120.00 C 256.91 121.10 262.40 119.17 271.00 120.00
M 451.00 240.00 
C 451.00 250.00 451.00 260.00 451.00 270.00
C 443.65 269.92 436.35 270.10 429.00 270.00 C 421.65 269.90 413.25 270.19 406.00 270.00 C 398.75 269.81 389.90 268.09 391.00 277.00 C 392.10 285.91 390.18 291.40 391.00 300.00
C 411.00 300.00 431.00 300.00 451.00 300.00
C 451.00 350.00 451.00 400.00 451.00 450.00
C 401.00 450.00 351.00 450.00 301.00 450.00
C 301.00 430.00 301.00 410.00 301.00 390.00
C 291.00 390.00 281.00 390.00 271.00 390.00
C 269.90 382.52 272.47 377.76 271.00 370.00 C 269.53 362.24 273.24 358.54 281.00 360.00 C 288.76 361.46 293.51 358.91 301.00 360.00
C 301.00 350.00 301.00 340.00 301.00 330.00
C 293.52 328.90 288.76 331.47 281.00 330.00 C 273.24 328.53 269.54 332.24 271.00 340.00 C 272.46 347.76 269.91 352.51 271.00 360.00
C 261.00 360.00 251.00 360.00 241.00 360.00
C 241.00 350.00 241.00 340.00 241.00 330.00
C 251.00 330.00 261.00 330.00 271.00 330.00
C 271.00 320.00 271.00 310.00 271.00 300.00
C 301.00 300.00 331.00 300.00 361.00 300.00
C 359.90 292.52 362.47 287.76 361.00 280.00 C 359.53 272.24 363.24 268.54 371.00 270.00 C 378.76 271.46 383.51 268.91 391.00 270.00
C 389.70 261.16 392.73 257.35 391.00 248.00 C 389.27 238.65 398.47 239.49 406.00 240.00 C 413.53 240.51 420.46 239.75 428.00 240.00 C 435.54 240.25 443.43 239.81 451.00 240.00 Z"/>
</g>
<g fill="#000000" fill-opacity="1.00" stroke="None">
<path d="
M 512.00 120.00 
L 512.00 0.00
L 392.00 0.00
C 392.00 10.00 392.00 20.00 392.00 30.00
C 422.00 30.00 452.00 30.00 482.00 30.00
C 482.00 60.00 482.00 90.00 482.00 120.00
C 492.00 120.00 502.00 120.00 512.00 120.00 Z"/>
</g>
<g fill="#000000" fill-opacity="1.00" stroke="None">
<path d="
M 211.00 60.00 
C 161.00 60.00 111.00 60.00 61.00 60.00
C 61.00 110.00 61.00 160.00 61.00 210.00
C 111.00 210.00 161.00 210.00 211.00 210.00
C 211.00 180.00 211.00 150.00 211.00 120.00
C 221.00 120.00 231.00 120.00 241.00 120.00
C 239.91 112.51 242.46 107.76 241.00 100.00 C 239.54 92.24 243.24 88.53 251.00 90.00 C 258.76 91.47 263.52 88.90 271.00 90.00
C 271.00 80.00 271.00 70.00 271.00 60.00
C 261.00 60.00 251.00 60.00 241.00 60.00
C 241.00 70.00 241.00 80.00 241.00 90.00
C 231.00 90.00 221.00 90.00 211.00 90.00
C 211.00 80.00 211.00 70.00 211.00 60.00
M 181.00 90.00 
C 181.00 120.00 181.00 150.00 181.00 180.00
C 151.00 180.00 121.00 180.00 91.00 180.00
C 91.00 150.00 91.00 120.00 91.00 90.00
C 121.00 90.00 151.00 90.00 181.00 90.00 Z"/>
</g>
<g fill="#000000" fill-opacity="1.00" stroke="None">
<path d="
M 451.00 60.00 
C 401.00 60.00 351.00 60.00 301.00 60.00
C 301.00 110.00 301.00 160.00 301.00 210.00
C 321.00 210.00 341.00 210.00 361.00 210.00
C 361.00 220.00 361.00 230.00 361.00 240.00
C 331.00 240.00 301.00 240.00 271.00 240.00
C 271.00 230.00 271.00 220.00 271.00 210.00
C 261.00 210.00 251.00 210.00 241.00 210.00
C 241.00 230.00 241.00 250.00 241.00 270.00
C 233.51 268.91 228.76 271.46 221.00 270.00 C 213.24 268.54 209.53 272.24 211.00 280.00 C 212.47 287.76 209.90 292.52 211.00 300.00
C 201.00 300.00 191.00 300.00 181.00 300.00
C 181.00 320.00 181.00 340.00 181.00 360.00
C 171.00 360.00 161.00 360.00 151.00 360.00
C 151.00 330.00 151.00 300.00 151.00 270.00
C 171.00 270.00 191.00 270.00 211.00 270.00
C 211.00 260.00 211.00 250.00 211.00 240.00
C 161.00 240.00 111.00 240.00 61.00 240.00
C 61.00 250.00 61.00 260.00 61.00 270.00
C 81.00 270.00 101.00 270.00 121.00 270.00
C 121.00 280.00 121.00 290.00 121.00 300.00
C 111.00 300.00 101.00 300.00 91.00 300.00
C 91.00 310.00 91.00 320.00 91.00 330.00
C 81.00 330.00 71.00 330.00 61.00 330.00
C 61.00 350.00 61.00 370.00 61.00 390.00
C 71.00 390.00 81.00 390.00 91.00 390.00
C 90.81 382.43 91.25 374.54 91.00 367.00 C 90.75 359.46 91.51 352.53 91.00 345.00 C 90.49 337.47 89.65 328.27 99.00 330.00 C 108.35 331.73 112.16 328.70 121.00 330.00
C 121.00 350.00 121.00 370.00 121.00 390.00
C 113.51 388.91 108.76 391.46 101.00 390.00 C 93.24 388.54 89.53 392.24 91.00 400.00 C 92.47 407.76 89.90 412.52 91.00 420.00
C 81.00 420.00 71.00 420.00 61.00 420.00
C 61.00 430.00 61.00 440.00 61.00 450.00
C 71.00 450.00 81.00 450.00 91.00 450.00
C 89.91 442.51 92.46 437.76 91.00 430.00 C 89.54 422.24 93.24 418.53 101.00 420.00 C 108.76 421.47 113.52 418.90 121.00 420.00
C 121.00 430.00 121.00 440.00 121.00 450.00
C 171.00 450.00 221.00 450.00 271.00 450.00
C 271.00 440.00 271.00 430.00 271.00 420.00
C 261.00 420.00 251.00 420.00 241.00 420.00
C 241.00 410.00 241.00 400.00 241.00 390.00
C 231.00 390.00 221.00 390.00 211.00 390.00
C 211.00 400.00 211.00 410.00 211.00 420.00
C 191.00 420.00 171.00 420.00 151.00 420.00
C 151.00 410.00 151.00 400.00 151.00 390.00
C 161.00 390.00 171.00 390.00 181.00 390.00
C 179.91 382.51 182.46 377.76 181.00 370.00 C 179.54 362.24 183.24 358.53 191.00 360.00 C 198.76 361.47 203.52 358.90 211.00 360.00
C 210.81 352.43 211.25 344.54 211.00 337.00 C 210.75 329.46 211.51 322.53 211.00 315.00 C 210.49 307.47 209.65 298.27 219.00 300.00 C 228.35 301.73 232.16 298.70 241.00 300.00
C 242.69 289.99 235.43 269.36 249.00 270.00 C 262.57 270.64 273.02 269.71 286.00 270.00 C 298.98 270.29 311.26 269.84 324.00 270.00 C 336.74 270.16 348.36 269.88 361.00 270.00
C 359.91 262.51 362.46 257.76 361.00 250.00 C 359.54 242.24 363.24 238.53 371.00 240.00 C 378.76 241.47 383.52 238.90 391.00 240.00
C 391.00 230.00 391.00 220.00 391.00 210.00
C 411.00 210.00 431.00 210.00 451.00 210.00
C 451.00 160.00 451.00 110.00 451.00 60.00
M 421.00 90.00 
C 421.00 120.00 421.00 150.00 421.00 180.00
C 391.00 180.00 361.00 180.00 331.00 180.00
C 331.00 150.00 331.00 120.00 331.00 90.00
C 361.00 90.00 391.00 90.00 421.00 90.00 Z"/>
</g>
<g fill="#FFFFFF" fill-opacity="1.00" stroke="None">
<path d="
M 181.00 90.00 
C 151.00 90.00 121.00 90.00 91.00 90.00
C 91.00 120.00 91.00 150.00 91.00 180.00
C 121.00 180.00 151.00 180.00 181.00 180.00
C 181.00 150.00 181.00 120.00 181.00 90.00
M 151.00 120.00 
C 151.00 130.00 151.00 140.00 151.00 150.00
C 141.00 150.00 131.00 150.00 121.00 150.00
C 121.00 140.00 121.00 130.00 121.00 120.00
C 131.00 120.00 141.00 120.00 151.00 120.00 Z"/>
</g>
<g fill="#FFFFFF" fill-opacity="1.00" stroke="None">
<path d="
M 421.00 90.00 
C 391.00 90.00 361.00 90.00 331.00 90.00
C 331.00 120.00 331.00 150.00 331.00 180.00
C 361.00 180.00 391.00 180.00 421.00 180.00
C 421.00 150.00 421.00 120.00 421.00 90.00
M 391.00 120.00 
C 391.00 130.00 391.00 140.00 391.00 150.00
C 381.00 150.00 371.00 150.00 361.00 150.00
C 361.00 140.00 361.00 130.00 361.00 120.00
C 371.00 120.00 381.00 120.00 391.00 120.00 Z"/>
</g>
<g fill="#000000" fill-opacity="1.00" stroke="None">
<path d="
M 151.00 120.00 
C 141.00 120.00 131.00 120.00 121.00 120.00
C 121.00 130.00 121.00 140.00 121.00 150.00
C 131.00 150.00 141.00 150.00 151.00 150.00
C 151.00 140.00 151.00 130.00 151.00 120.00 Z"/>
</g>
<g fill="#000000" fill-opacity="1.00" stroke="None">
<path d="
M 271.00 120.00 
C 262.40 119.17 256.91 121.10 248.00 120.00 C 239.09 118.90 240.81 127.75 241.00 135.00 C 241.19 142.25 240.90 150.65 241.00 158.00 C 241.10 165.35 240.92 172.65 241.00 180.00
C 251.00 180.00 261.00 180.00 271.00 180.00
C 271.00 160.00 271.00 140.00 271.00 120.00 Z"/>
</g>
<g fill="#000000" fill-opacity="1.00" stroke="None">
<path d="
M 391.00 120.00 
C 381.00 120.00 371.00 120.00 361.00 120.00
C 361.00 130.00 361.00 140.00 361.00 150.00
C 371.00 150.00 381.00 150.00 391.00 150.00
C 391.00 140.00 391.00 130.00 391.00 120.00 Z"/>
</g>
<g fill="#000000" fill-opacity="1.00" stroke="None">
<path d="
M 451.00 240.00 
C 443.43 239.81 435.54 240.25 428.00 240.00 C 420.46 239.75 413.53 240.51 406.00 240.00 C 398.47 239.49 389.27 238.65 391.00 248.00 C 392.73 257.35 389.70 261.16 391.00 270.00
C 383.51 268.91 378.76 271.46 371.00 270.00 C 363.24 268.54 359.53 272.24 361.00 280.00 C 362.47 287.76 359.90 292.52 361.00 300.00
C 331.00 300.00 301.00 300.00 271.00 300.00
C 271.00 310.00 271.00 320.00 271.00 330.00
C 261.00 330.00 251.00 330.00 241.00 330.00
C 241.00 340.00 241.00 350.00 241.00 360.00
C 251.00 360.00 261.00 360.00 271.00 360.00
C 269.91 352.51 272.46 347.76 271.00 340.00 C 269.54 332.24 273.24 328.53 281.00 330.00 C 288.76 331.47 293.52 328.90 301.00 330.00
C 301.00 340.00 301.00 350.00 301.00 360.00
C 293.51 358.91 288.76 361.46 281.00 360.00 C 273.24 358.54 269.53 362.24 271.00 370.00 C 272.47 377.76 269.90 382.52 271.00 390.00
C 281.00 390.00 291.00 390.00 301.00 390.00
C 301.00 410.00 301.00 430.00 301.00 450.00
C 351.00 450.00 401.00 450.00 451.00 450.00
C 451.00 400.00 451.00 350.00 451.00 300.00
C 431.00 300.00 411.00 300.00 391.00 300.00
C 390.18 291.40 392.10 285.91 391.00 277.00 C 389.90 268.09 398.75 269.81 406.00 270.00 C 413.25 270.19 421.65 269.90 429.00 270.00 C 436.35 270.10 443.65 269.92 451.00 270.00
C 451.00 260.00 451.00 250.00 451.00 240.00
M 421.00 330.00 
C 421.00 360.00 421.00 390.00 421.00 420.00
C 391.00 420.00 361.00 420.00 331.00 420.00
C 331.00 390.00 331.00 360.00 331.00 330.00
C 361.00 330.00 391.00 330.00 421.00 330.00 Z"/>
</g>
<g fill="#FFFFFF" fill-opacity="1.00" stroke="None">
<path d="
M 421.00 330.00 
C 391.00 330.00 361.00 330.00 331.00 330.00
C 331.00 360.00 331.00 390.00 331.00 420.00
C 361.00 420.00 391.00 420.00 421.00 420.00
C 421.00 390.00 421.00 360.00 421.00 330.00
M 391.00 360.00 
C 391.00 370.00 391.00 380.00 391.00 390.00
C 381.00 390.00 371.00 390.00 361.00 390.00
C 361.00 380.00 361.00 370.00 361.00 360.00
C 371.00 360.00 381.00 360.00 391.00 360.00 Z"/>
</g>
<g fill="#000000" fill-opacity="1.00" stroke="None">
<path d="
M 391.00 360.00 
C 381.00 360.00 371.00 360.00 361.00 360.00
C 361.00 370.00 361.00 380.00 361.00 390.00
C 371.00 390.00 381.00 390.00 391.00 390.00
C 391.00 380.00 391.00 370.00 391.00 360.00 Z"/>
</g>
<g fill="#000000" fill-opacity="1.00" stroke="None">
<path d="
M 0.00 512.00 
L 120.00 512.00
C 120.00 502.00 120.00 492.00 120.00 482.00
C 90.00 482.00 60.00 482.00 30.00 482.00
C 30.00 452.00 30.00 422.00 30.00 392.00
C 20.00 392.00 10.00 392.00 0.00 392.00
L 0.00 512.00 Z"/>
</g>
<g fill="#000000" fill-opacity="1.00" stroke="None">
<path d="
M 392.00 512.00 
L 512.00 512.00
L 512.00 392.00
C 502.00 392.00 492.00 392.00 482.00 392.00
C 482.00 422.00 482.00 452.00 482.00 482.00
C 452.00 482.00 422.00 482.00 392.00 482.00
C 392.00 492.00 392.00 502.00 392.00 512.00 Z"/>
</g>
</svg>